<?xml version="1.0" encoding="UTF-8"?>
<svg id="Layer_1" data-name="Layer 1" xmlns="http://www.w3.org/2000/svg" viewBox="0 0 269.79 80">
  <defs>
    <style>
      .cls-1 {
        fill: #231f20;
      }
    </style>
  </defs>
  <path class="cls-1" d="M22.38,48.99l-6.5-.48.03,5.28,6.51.5-.05-5.29ZM21.37,53.45l-4.57-.32-.1-3.88,4.68.32-.02,3.88Z"/>
  <ellipse class="cls-1" cx="24.02" cy="64.35" rx=".37" ry=".35"/>
  <ellipse class="cls-1" cx="14.06" cy="63.74" rx=".43" ry=".38"/>
  <g>
    <polygon points="67.07 7.9 64.4 23.99 66.5 24.07 68.73 9.2 67.07 7.9"/>
    <circle cx="31.57" cy="23.94" r="3.34"/>
    <g>
      <path d="M77.23,25.81l-30.38-.82-19.16,4.68-.2,9.84-3.16-.1v2.22l-22.09-1.45.44,33.58,33.41,3.18.16-5.52,7-3.66,17.37,1.66,16.92-8.88-.33-34.74ZM23.11,48.29l-.09,6.56-7.72-.48-.18-6.66,7.98.58ZM25.07,65.02l-2.04.07-.78.56-7.19-.55-.5-.52-1.31-.12.03-1.62c.07.01,1.93.09,1.93.09l.15.51,6.91.58.29-.59,2.6.28-.08,1.31ZM25.44,41.8l-.03-.17-.11-1.57,24.51,1.04,1.71,9.29-1.53.53-.79-8.2-23.76-.92ZM31.62,38l-.05-.77,23.84.05-.63,11.8-1.14.28.42-11.36h-22.44ZM53.15,38.69l-.1,10.9-.85.55-1.18-10.15-20.6-.63.34-.77,22.4.1ZM49.24,51.08l-13.01,5.02.06-13.22,12.3.48.64,7.72ZM36.13,69.73l.22-13.02,20.73-7.81.07,10.23-21.02,10.6ZM57.84,67.54l-.18-33.27-27.81-.77-.15,5.74-1.67-.12.15-8.76,31.7.92.23,36.52-2.28-.26Z"/>
      <polygon points="63.7 24 66.46 6.3 42.91 5.47 38.4 25.17 46.92 22.92 63.7 24"/>
      <path d="M22.63,38.45l3.71-.35-.27-8.31c-1.34-1.41-2.16-3.31-2.16-5.41,0-4.33,3.51-7.85,7.85-7.85,2.72,0,5.12,1.39,6.53,3.49l2.92-11.4c-2.76-1.66-5.99-2.61-9.44-2.61-10.15,0-18.37,8.22-18.37,18.37,0,6.8,3.7,12.74,9.19,15.92l.05-1.85Z"/>
      <path d="M11.61,26.06l-8.27,2.42,2.09,10.19,13.51,1.27s-2.99-1.64-5.2-6.28-2.13-7.6-2.13-7.6Z"/>
      <g>
        <path d="M92.6,58.16l1.33,15.75-7.87.67-1.33-15.75,7.88-.67ZM91.27,42.41l7.88-.66,1.33,15.75-7.87.66-1.33-15.75ZM97.15,18.12l7.88-.67-.67-7.87,31.5-2.66.67,7.87-23.63,2,.67,7.87-7.87.67,1.33,15.75-7.87.67-2-23.63ZM107.02,41.08l7.88-.67.66,7.87-7.87.67-.67-7.87ZM115.56,48.29l23.63-2,.67,7.88-23.63,2-.67-7.88ZM136.53,14.79l7.87-.67.67,7.88-7.87.67-.67-7.88ZM138.52,38.42l7.88-.67.66,7.87-7.87.67-.67-7.87ZM145.07,22l7.88-.67,1.33,15.75-7.87.67-1.33-15.75Z"/>
        <path d="M155.84,65.7l.66,7.87-7.87.67-.67-7.87,7.88-.67ZM154.51,49.95l7.87-.67,1.33,15.75-7.87.67-1.33-15.75ZM160.39,25.66l7.88-.67,2,23.63-7.88.67-2-23.63ZM166.93,9.25l7.88-.67,1.33,15.75-7.87.67-1.33-15.75ZM176.14,24.33l7.88-.67.66,7.88,7.88-.67.67,7.87-7.88.67,1.33,15.75-7.88.67-2.66-31.5ZM191.22,15.12l7.88-.67-.67-7.87,7.87-.67,3.33,39.38-7.87.67-1.33-15.75-7.87.67-1.33-15.75ZM193.89,46.63l7.88-.67,2,23.63-7.87.66-2-23.63Z"/>
        <path d="M219.41,65.37l.66,7.87-7.87.67-.67-7.87,7.88-.67ZM218.08,49.62l7.87-.67,1.33,15.75-7.87.67-1.33-15.75ZM224.63,33.2l7.87-.67,1.33,15.75-7.88.67-1.33-15.75ZM231.17,16.79l7.87-.66,1.33,15.75-7.88.67-1.33-15.75ZM233.83,48.29l15.75-1.33-2.66-31.5,7.87-.67,2.66,31.5,7.88-.67.67,7.88-15.75,1.33,1.33,15.75-7.87.67-1.33-15.75-7.87.67-.67-7.88ZM238.38,8.25l7.87-.67.67,7.88-7.88.67-.66-7.88Z"/>
      </g>
    </g>
  </g>
</svg>